<svg width="51" height="68" viewBox="0 0 51 68" fill="none" xmlns="http://www.w3.org/2000/svg">
<g clip-path="url(#clip0_152_780)">
<path d="M50.0267 0.968994H8.94801V58.7662H50.0267V0.968994Z" stroke="#D3993F" stroke-width="2" stroke-linecap="round" stroke-linejoin="round"/>
<path d="M8.9447 58.7662H4.99209C2.77412 58.7662 0.976573 56.9793 0.976573 54.7817L0.976573 4.95686C0.976573 2.756 2.77743 0.972314 4.99209 0.972314H8.9447L8.9447 58.7662Z" stroke="#D3993F" stroke-width="2" stroke-linecap="round" stroke-linejoin="round"/>
<path d="M13.9997 58.7662V67.031L18.8262 62.8986" stroke="#D3993F" stroke-width="2" stroke-linecap="round" stroke-linejoin="round"/>
<path d="M23.6495 58.7662V67.031L18.8262 62.8986" stroke="#D3993F" stroke-width="2" stroke-linecap="round" stroke-linejoin="round"/>
<path d="M30.6973 23.2994V18.0667H34.1964V23.2994" stroke="#D3993F" stroke-width="2" stroke-linecap="round" stroke-linejoin="round"/>
<path d="M34.1964 28.7261V41.6684H30.6973V28.7261" stroke="#D3993F" stroke-width="2" stroke-linecap="round" stroke-linejoin="round"/>
<path d="M34.1964 23.2996H37.6922V28.7262H34.1964" stroke="#D3993F" stroke-width="2" stroke-linecap="round" stroke-linejoin="round"/>
<path d="M30.6973 28.7262H27.2015V23.2996H30.6973" stroke="#D3993F" stroke-width="2" stroke-linecap="round" stroke-linejoin="round"/>
</g>
<defs>
<clipPath id="clip0_152_780">
<rect width="51" height="68" fill="white"/>
</clipPath>
</defs>
</svg>
