<svg width="84" height="85" viewBox="0 0 84 85" fill="none" xmlns="http://www.w3.org/2000/svg">
<path d="M17.7477 49.4979H16.1026C11.6814 49.4979 8.0943 53.1053 8.0943 57.5589V60.0578H25.7527V57.5589C25.7527 53.1086 22.1689 49.4979 17.7444 49.4979H17.7477Z" stroke="#D3993F" stroke-width="2" stroke-linecap="round" stroke-linejoin="round"/>
<path d="M16.9268 49.498C19.1373 49.498 20.9293 47.6942 20.9293 45.4691C20.9293 43.2441 19.1373 41.4403 16.9268 41.4403C14.7163 41.4403 12.9243 43.2441 12.9243 45.4691C12.9243 47.6942 14.7163 49.498 16.9268 49.498Z" stroke="#D3993F" stroke-width="2" stroke-linecap="round" stroke-linejoin="round"/>
<path d="M66.3941 49.4979H64.7489C60.3277 49.4979 56.7407 53.1053 56.7407 57.5589V60.0578H74.3991V57.5589C74.3991 53.1086 70.8153 49.4979 66.3908 49.4979H66.3941Z" stroke="#D3993F" stroke-width="2" stroke-linecap="round" stroke-linejoin="round"/>
<path d="M65.5732 49.498C67.7837 49.498 69.5757 47.6942 69.5757 45.4691C69.5757 43.2441 67.7837 41.4403 65.5732 41.4403C63.3627 41.4403 61.5707 43.2441 61.5707 45.4691C61.5707 47.6942 63.3627 49.498 65.5732 49.498Z" stroke="#D3993F" stroke-width="2" stroke-linecap="round" stroke-linejoin="round"/>
<path d="M42.0726 9.05713H40.4274C36.0062 9.05713 32.4191 12.6645 32.4191 17.1181V19.617H50.0775V17.1181C50.0775 12.6678 46.4938 9.05713 42.0693 9.05713H42.0726Z" stroke="#D3993F" stroke-width="2" stroke-linecap="round" stroke-linejoin="round"/>
<path d="M45.2019 5.67548C45.5561 3.47916 44.0744 1.40969 41.8924 1.05318C39.7105 0.696668 37.6545 2.18812 37.3004 4.38443C36.9462 6.58074 38.4279 8.65022 40.6098 9.00673C42.7918 9.36324 44.8477 7.87179 45.2019 5.67548Z" stroke="#D3993F" stroke-width="2" stroke-linecap="round" stroke-linejoin="round"/>
<path d="M65.9095 49.4749L65.8996 49.4981" stroke="#D3993F" stroke-width="2" stroke-linecap="round" stroke-linejoin="round"/>
<path d="M48.7027 12.5947H48.6928" stroke="#D3993F" stroke-width="2" stroke-linecap="round" stroke-linejoin="round"/>
<path d="M16.6038 49.4981C16.6038 49.4981 16.5939 49.4881 16.5939 49.4749" stroke="#D3993F" stroke-width="2" stroke-linecap="round" stroke-linejoin="round"/>
<path d="M24.823 60.0612C29.3629 63.6055 35.0666 65.6995 41.2517 65.6995C44.842 65.6995 48.261 64.996 51.3799 63.7083H51.3898" stroke="#D3993F" stroke-width="2" stroke-linecap="round" stroke-linejoin="round"/>
<path d="M33.8071 12.5947H33.7972C23.9427 15.4488 16.4092 23.8018 14.7047 34.1493" stroke="#D3993F" stroke-width="2" stroke-linecap="round" stroke-linejoin="round"/>
<path d="M58.076 17.4832C64.2248 22.4545 68.158 30.0707 68.158 38.6229C68.158 39.8441 68.0789 41.0388 67.9173 42.2136" stroke="#D3993F" stroke-width="2" stroke-linecap="round" stroke-linejoin="round"/>
<path d="M46.1377 61.7505L51.426 63.7218L49.4676 69.0449" stroke="#D3993F" stroke-width="2" stroke-linecap="round" stroke-linejoin="round"/>
<path d="M58.9332 23.0486L58.0628 17.4401L63.6346 16.564" stroke="#D3993F" stroke-width="2" stroke-linecap="round" stroke-linejoin="round"/>
<path d="M19.1226 30.6683L14.6816 34.1661L11.2066 29.6992" stroke="#D3993F" stroke-width="2" stroke-linecap="round" stroke-linejoin="round"/>
<path d="M41.2484 33.5686C40.2593 32.4734 38.99 31.594 37.5558 31.2157C33.6259 30.1869 30.4212 33.4624 29.9926 37.1693C29.4783 41.6362 33.3192 45.1141 34.9413 46.581C37.325 48.7381 39.7911 50.1253 41.2484 50.6131C42.7089 50.1253 45.1717 48.7381 47.5554 46.581C49.1775 45.1141 53.0185 41.6362 52.5041 37.1693C52.0755 33.4624 48.8709 30.1869 44.941 31.2157C43.5068 31.5907 42.2375 32.4701 41.2484 33.5686Z" stroke="#D3993F" stroke-width="2" stroke-linecap="round" stroke-linejoin="round"/>
</svg>
