<svg width="73" height="73" viewBox="0 0 73 73" fill="none" xmlns="http://www.w3.org/2000/svg">
<path d="M23.1306 43.1532L23.025 41.403C22.7818 37.3683 22.8874 23.3251 34.0941 12.1199C34.4173 11.7967 34.7469 11.4672 35.0957 11.1504C46.1391 0.898763 59.5154 0.850768 63.3491 1.08434L71.4324 1.56749L71.9157 9.64978C72.1493 13.483 72.1109 26.8639 61.8546 37.909C61.5314 38.2482 61.2082 38.5873 60.885 38.9105C49.6784 50.1157 35.6397 50.2116 31.598 49.9781L29.8316 49.8725" stroke="#D3993F" stroke-width="2" stroke-linecap="round" stroke-linejoin="round"/>
<path d="M62.9268 10.0715C63.0397 11.9618 63.5106 22.8193 55.2236 31.7479C46.0721 41.6055 33.6949 41.0926 32.0078 40.9926C31.9078 39.3056 31.3949 26.9255 41.2529 17.7776C50.1818 9.49091 61.0365 9.95863 62.93 10.0748L62.9268 10.0715Z" stroke="#D3993F" stroke-width="2" stroke-linecap="round" stroke-linejoin="round"/>
<path d="M22.8132 43.6151L7.3096 43.0293L6.97113 51.9636L20.5223 52.4774L21.0425 66.0293L29.9711 65.6816L29.3788 50.1937" stroke="#D3993F" stroke-width="2" stroke-linecap="round" stroke-linejoin="round"/>
</svg>
