<svg width="84" height="84" viewBox="0 0 84 84" fill="none" xmlns="http://www.w3.org/2000/svg">
<path d="M59.9184 59.0487C73.1978 45.7693 73.1978 24.239 59.9184 10.9596C46.6389 -2.31987 25.1087 -2.31987 11.8292 10.9596C-1.45021 24.239 -1.45021 45.7693 11.8292 59.0487C25.1087 72.3282 46.6389 72.3282 59.9184 59.0487Z" stroke="#D3993F" stroke-width="2" stroke-linecap="round" stroke-linejoin="round"/>
<path d="M35.8733 69.0083C45.6274 69.0083 53.5347 53.7841 53.5347 35.0042C53.5347 16.2242 45.6274 1 35.8733 1C26.1191 1 18.2118 16.2242 18.2118 35.0042C18.2118 53.7841 26.1191 69.0083 35.8733 69.0083Z" stroke="#D3993F" stroke-width="2" stroke-linecap="round" stroke-linejoin="round"/>
<path d="M10.1843 12.7405C13.1499 14.5225 16.785 15.9867 20.8901 17.0214C24.1735 17.8769 27.7477 18.4417 31.5248 18.6851" stroke="#D3993F" stroke-width="2" stroke-linecap="round" stroke-linejoin="round"/>
<path d="M40.2252 18.6851C44.0023 18.4383 47.5766 17.8769 50.86 17.0214C54.9651 15.9901 58.6002 14.5225 61.5657 12.7405" stroke="#D3993F" stroke-width="2" stroke-linecap="round" stroke-linejoin="round"/>
<path d="M10.1843 57.2713C13.1499 55.4893 16.785 54.0251 20.8901 52.9903C24.1735 52.1348 27.7477 51.5701 31.5248 51.3267" stroke="#D3993F" stroke-width="2" stroke-linecap="round" stroke-linejoin="round"/>
<path d="M40.2252 51.3267C44.0023 51.5735 47.5766 52.1348 50.86 52.9903C54.9651 54.0217 58.6002 55.4893 61.5657 57.2713" stroke="#D3993F" stroke-width="2" stroke-linecap="round" stroke-linejoin="round"/>
<path d="M18.2152 35.0042H1.87256" stroke="#D3993F" stroke-width="2" stroke-linecap="round" stroke-linejoin="round"/>
<path d="M69.8774 35.0042H53.5314" stroke="#D3993F" stroke-width="2" stroke-linecap="round" stroke-linejoin="round"/>
<path d="M31.5214 24.4744V16.0815H40.2287V24.4744" stroke="#D3993F" stroke-width="2" stroke-linecap="round" stroke-linejoin="round"/>
<path d="M40.2287 33.1782V53.9304H31.5214V33.1782" stroke="#D3993F" stroke-width="2" stroke-linecap="round" stroke-linejoin="round"/>
<path d="M40.2286 24.4741H48.9326V33.178H40.2286" stroke="#D3993F" stroke-width="2" stroke-linecap="round" stroke-linejoin="round"/>
<path d="M31.5214 33.178H22.8175V24.4741H31.5214" stroke="#D3993F" stroke-width="2" stroke-linecap="round" stroke-linejoin="round"/>
</svg>
