<svg width="84" height="81" viewBox="0 0 84 81" fill="none" xmlns="http://www.w3.org/2000/svg">
<path d="M37.3902 43.3914C38.0035 45.8902 37.8773 47.9021 37.5654 49.395C35.9952 56.8914 27.3663 62.6838 16 64.1802C17.3704 64.71 20.8542 66.2745 23.5249 70.0943C26.4375 74.2613 26.5812 78.5394 26.5636 80C33.328 67.5489 40.6286 63.0525 45.9595 61.2231C54.5605 58.2697 60.4276 61.4308 65.3554 56.3437C69.6384 51.9224 67.6196 47.0358 72.7367 39.7864C75.6842 35.6086 79.3048 33.0489 82 31.506C81.8318 31.2446 77.8467 25.2231 70.8546 25.5919C64.9734 25.9033 61.7034 30.4821 61.3003 31.0621C58.3072 27.0525 52.794 20.716 44.0774 15.5394C35.5676 10.4845 27.6466 8.70525 22.8029 8C22.7258 9.41408 22.6312 14.3544 25.9888 19.0871C29.4867 24.0239 34.383 25.4129 35.6868 25.7387" stroke="#D3993F" stroke-width="2" stroke-linecap="round" stroke-linejoin="round"/>
</svg>
