<svg width="84" height="84" viewBox="0 0 84 84" fill="none" xmlns="http://www.w3.org/2000/svg">
<path d="M51.625 17.5V1.75H35.875V17.5" stroke="#D3993F" stroke-width="2" stroke-linecap="round" stroke-linejoin="round"/>
<path d="M35.875 35V70H51.625V35.0402" stroke="#D3993F" stroke-width="2" stroke-linecap="round" stroke-linejoin="round"/>
<path d="M30.625 17.5H35.875" stroke="#D3993F" stroke-width="2" stroke-linecap="round" stroke-linejoin="round"/>
<path d="M23.3186 17.5H20.125V33.25H32.375" stroke="#D3993F" stroke-width="2" stroke-linecap="round" stroke-linejoin="round"/>
<path d="M51.625 17.5H56.875" stroke="#D3993F" stroke-width="2" stroke-linecap="round" stroke-linejoin="round"/>
<path d="M64.1309 17.5H67.375V33.25H55.125" stroke="#D3993F" stroke-width="2" stroke-linecap="round" stroke-linejoin="round"/>
<path d="M27.1613 14.0122C25.1141 13.9 23.3941 15.6642 23.6504 17.714C24.2237 22.354 26.2608 25.9403 29.4749 29.7237C33.3164 34.2141 38.4934 36.75 43.7951 36.75C44.0177 36.75 44.2403 36.75 44.4663 36.7364C49.8254 36.5154 54.8236 33.8232 58.5437 29.139C61.4677 25.4508 63.2923 22.1603 63.8454 17.8772C64.1186 15.756 62.4627 13.8864 60.3447 14.0054C58.7157 14.0972 57.4071 15.3685 57.2148 17.0002C56.3413 24.329 50.7832 28.7107 44.237 28.9758C37.3433 29.2546 31.2186 24.7301 30.2979 16.9798C30.1056 15.3549 28.7869 14.1006 27.1647 14.0122H27.1613Z" stroke="#D3993F" stroke-width="2" stroke-linecap="round" stroke-linejoin="round"/>
<path d="M23.625 33.25V43.3717C23.625 44.5459 24.7225 45.5 26.0732 45.5H28.1768C29.5275 45.5 30.625 44.5459 30.625 43.3717V33.25" stroke="#D3993F" stroke-width="2" stroke-linecap="round" stroke-linejoin="round"/>
<path d="M63.875 33.25V39.6747C63.875 40.9576 62.7775 42 61.4268 42H59.3232C57.9725 42 56.875 40.9576 56.875 39.6747V33.25" stroke="#D3993F" stroke-width="2" stroke-linecap="round" stroke-linejoin="round"/>
</svg>
